<svg width="64" height="64" viewBox="0 0 64 64" fill="none" xmlns="http://www.w3.org/2000/svg">
<path d="M10.1438 18.4058C10.4336 17.1542 11.1461 16.0366 12.1646 15.2362C13.1832 14.4358 14.4473 13.9999 15.75 14H50.25C51.5527 13.9999 52.8168 14.4358 53.8353 15.2362C54.8539 16.0366 55.5664 17.1542 55.8562 18.4058L33 32.173L10.1438 18.4058ZM10 21.6415V41.7695L26.6836 31.6885L10 21.6415ZM29.4379 33.3517L10.5491 44.7615C11.0158 45.7313 11.7524 46.5505 12.6731 47.1239C13.5939 47.6972 14.6609 48.001 15.75 48H50.25C51.3389 48.0002 52.4056 47.6957 53.3258 47.1219C54.246 46.5481 54.9819 45.7286 55.448 44.7587L36.5592 33.3488L33 35.4937L29.4379 33.3488V33.3517ZM39.3164 31.6913L56 41.7695V21.6415L39.3164 31.6885V31.6913Z" fill="#ABB2BF"/>
</svg>
