<svg xmlns="http://www.w3.org/2000/svg" width="64" height="64" fill="none"><path fill="#ABB2BF" d="M8 11.438C8 9.539 9.578 8 11.525 8h40.95C54.422 8 56 9.539 56 11.438v41.124C56 54.461 54.422 56 52.475 56h-40.95C9.578 56 8 54.461 8 52.562V11.438Zm14.829 36.744V26.507h-7.203v21.675h7.203Zm-3.6-24.636c2.511 0 4.074-1.662 4.074-3.744-.045-2.127-1.56-3.744-4.026-3.744-2.466 0-4.077 1.62-4.077 3.744 0 2.082 1.563 3.744 3.981 3.744h.048Zm14.724 24.636V36.077c0-.648.048-1.296.24-1.758.519-1.293 1.704-2.634 3.696-2.634 2.607 0 3.648 1.986 3.648 4.902v11.595h7.203V35.75c0-6.66-3.552-9.756-8.292-9.756-3.822 0-5.535 2.1-6.495 3.579v.075h-.048l.048-.075v-3.066h-7.2c.09 2.034 0 21.675 0 21.675h7.2Z"/></svg>