<svg width="58" height="58" viewBox="0 0 58 58" fill="none" xmlns="http://www.w3.org/2000/svg">
<circle cx="2.62268" cy="2.74841" r="2" fill="#ABB2BF"/>
<circle cx="15.7719" cy="2.74841" r="2" fill="#ABB2BF"/>
<circle cx="28.9212" cy="2.74841" r="2" fill="#ABB2BF"/>
<circle cx="42.0704" cy="2.74841" r="2" fill="#ABB2BF"/>
<circle cx="55.2197" cy="2.74841" r="2" fill="#ABB2BF"/>
<circle cx="2.62268" cy="15.8976" r="2" fill="#ABB2BF"/>
<circle cx="15.7719" cy="15.8976" r="2" fill="#ABB2BF"/>
<circle cx="28.9212" cy="15.8976" r="2" fill="#ABB2BF"/>
<circle cx="42.0704" cy="15.8976" r="2" fill="#ABB2BF"/>
<circle cx="55.2197" cy="15.8976" r="2" fill="#ABB2BF"/>
<circle cx="2.62268" cy="29.0469" r="2" fill="#ABB2BF"/>
<circle cx="15.7719" cy="29.0469" r="2" fill="#ABB2BF"/>
<circle cx="28.9212" cy="29.0469" r="2" fill="#ABB2BF"/>
<circle cx="42.0704" cy="29.0469" r="2" fill="#ABB2BF"/>
<circle cx="55.2197" cy="29.0469" r="2" fill="#ABB2BF"/>
<circle cx="2.62268" cy="42.1962" r="2" fill="#ABB2BF"/>
<circle cx="15.7719" cy="42.1962" r="2" fill="#ABB2BF"/>
<circle cx="28.9212" cy="42.1962" r="2" fill="#ABB2BF"/>
<circle cx="42.0704" cy="42.1962" r="2" fill="#ABB2BF"/>
<circle cx="55.2197" cy="42.1962" r="2" fill="#ABB2BF"/>
<circle cx="2.62268" cy="55.3455" r="2" fill="#ABB2BF"/>
<circle cx="15.7719" cy="55.3455" r="2" fill="#ABB2BF"/>
<circle cx="28.9212" cy="55.3455" r="2" fill="#ABB2BF"/>
<circle cx="42.0704" cy="55.3455" r="2" fill="#ABB2BF"/>
<circle cx="55.2197" cy="55.3455" r="2" fill="#ABB2BF"/>
</svg>
