<svg width="64" height="64" viewBox="0 0 64 64" fill="none" xmlns="http://www.w3.org/2000/svg">
<path d="M31 12C19.3975 12 10 21.1764 10 32.5059C10 41.5797 16.0112 49.2438 24.3587 51.9608C25.4087 52.1403 25.8025 51.5251 25.8025 50.9868C25.8025 50.4998 25.7763 48.8849 25.7763 47.1676C20.5 48.116 19.135 45.9116 18.715 44.7581C18.4788 44.1686 17.455 42.3487 16.5625 41.8617C15.8275 41.4772 14.7775 40.5288 16.5363 40.5032C18.19 40.4775 19.3713 41.9898 19.765 42.605C21.655 45.7065 24.6738 44.835 25.8813 44.2968C26.065 42.9639 26.6162 42.0667 27.22 41.5541C22.5475 41.0414 17.665 39.2728 17.665 31.4293C17.665 29.1993 18.4788 27.3538 19.8175 25.9184C19.6075 25.4057 18.8725 23.3039 20.0275 20.4843C20.0275 20.4843 21.7863 19.946 25.8025 22.5862C27.4825 22.1248 29.2675 21.8941 31.0525 21.8941C32.8375 21.8941 34.6225 22.1248 36.3025 22.5862C40.3188 19.9204 42.0775 20.4843 42.0775 20.4843C43.2325 23.3039 42.4975 25.4057 42.2875 25.9184C43.6263 27.3538 44.44 29.1737 44.44 31.4293C44.44 39.2984 39.5312 41.0414 34.8588 41.5541C35.62 42.1949 36.2763 43.4253 36.2763 45.3477C36.2763 48.0903 36.25 50.2947 36.25 50.9868C36.25 51.5251 36.6438 52.1659 37.6938 51.9608C41.8628 50.5869 45.4856 47.9707 48.0521 44.4807C50.6185 40.9906 51.9993 36.8025 52 32.5059C52 21.1764 42.6025 12 31 12Z" fill="#ABB2BF"/>
</svg>
