<svg width="64" height="64" viewBox="0 0 64 64" fill="none" xmlns="http://www.w3.org/2000/svg">
<path d="M8 11.438C8 9.539 9.578 8 11.525 8H52.475C54.422 8 56 9.539 56 11.438V52.562C56 54.461 54.422 56 52.475 56H11.525C9.578 56 8 54.461 8 52.562V11.438ZM22.829 48.182V26.507H15.626V48.182H22.829ZM19.229 23.546C21.74 23.546 23.303 21.884 23.303 19.802C23.258 17.675 21.743 16.058 19.277 16.058C16.811 16.058 15.2 17.678 15.2 19.802C15.2 21.884 16.763 23.546 19.181 23.546H19.229ZM33.953 48.182V36.077C33.953 35.429 34.001 34.781 34.193 34.319C34.712 33.026 35.897 31.685 37.889 31.685C40.496 31.685 41.537 33.671 41.537 36.587V48.182H48.74V35.75C48.74 29.09 45.188 25.994 40.448 25.994C36.626 25.994 34.913 28.094 33.953 29.573V29.648H33.905C33.9209 29.623 33.9369 29.598 33.953 29.573V26.507H26.753C26.843 28.541 26.753 48.182 26.753 48.182H33.953Z" fill="#ABB2BF"/>
</svg>
