<?xml version="1.0" encoding="iso-8859-1"?>
<!-- Uploaded to: SVG Repo, www.svgrepo.com, Generator: SVG Repo Mixer Tools -->
<svg version="1.1" id="Layer_1" xmlns="http://www.w3.org/2000/svg" xmlns:xlink="http://www.w3.org/1999/xlink" 
	 viewBox="0 0 352.289 352.289" xml:space="preserve">
<g>
	<rect x="156.675" y="263.395" style="fill:#1E252B;" width="49.935" height="31.083"/>
	<path style="fill:#005FAD;" d="M341.289,67.567c0-12.354-10.109-22.463-22.463-22.463H22.463C10.107,45.103,0,55.212,0,67.567
		v174.365c0,12.355,10.107,22.463,22.463,22.463h296.363c12.354,0,22.463-10.109,22.463-22.463L341.289,67.567L341.289,67.567z"/>
	<path style="fill:#1E252B;" d="M0,231.938v9.994c0,12.355,10.107,22.463,22.463,22.463h296.363
		c12.354,0,22.463-10.109,22.463-22.463v-9.994L0,231.938L0,231.938z"/>
	<path style="fill:#0071CE;" d="M352.289,67.567c0-12.354-10.109-22.463-22.463-22.463H33.463C21.107,45.103,11,55.212,11,67.567
		v174.365c0,12.355,10.107,22.463,22.463,22.463h296.363c12.354,0,22.463-10.109,22.463-22.463V67.567z"/>
	<g>
		<rect x="89.633" y="79.502" style="fill:#FFFFFF;" width="183.125" height="119.165"/>
		<polygon style="fill:#5E96DC;" points="89.633,198.667 149.304,138.997 174.389,164.081 227.806,110.664 272.767,155.625 
			272.767,198.667 		"/>
		<circle style="fill:#FFC843;" cx="131.978" cy="112.664" r="18.678"/>
	</g>
	<path style="fill:#333E48;" d="M11,231.938v9.994c0,12.355,10.107,22.463,22.463,22.463h296.363
		c12.354,0,22.463-10.109,22.463-22.463v-9.994L11,231.938L11,231.938z"/>
	<rect x="129.473" y="292.921" style="fill:#333E48;" width="104.34" height="14.264"/>
</g>
</svg>