<svg width="64" height="64" viewBox="0 0 64 64" fill="none" xmlns="http://www.w3.org/2000/svg">
<path d="M22.4498 52C39.809 52 49.3051 37.3766 49.3051 24.7175C49.3051 24.3082 49.3051 23.8932 49.2879 23.484C51.1367 22.1233 52.7323 20.4387 54 18.5092C52.273 19.2833 50.4429 19.7935 48.5691 20.0232C50.5429 18.8238 52.0212 16.9365 52.7292 14.7123C50.8748 15.8292 48.8452 16.6133 46.7291 17.0302C45.3065 15.4899 43.424 14.4695 41.3732 14.127C39.3225 13.7846 37.2178 14.1392 35.3853 15.1359C33.5529 16.1327 32.0948 17.716 31.237 19.6405C30.3793 21.5651 30.1696 23.7235 30.6406 25.7814C26.888 25.5901 23.2168 24.599 19.8652 22.8723C16.5136 21.1457 13.5565 18.7221 11.1855 15.7587C9.98185 17.8722 9.61452 20.3722 10.1581 22.7511C10.7017 25.13 12.1154 27.2093 14.1122 28.5669C12.6159 28.5153 11.1525 28.1068 9.84 27.3744V27.5059C9.84258 29.72 10.597 31.8652 11.9758 33.579C13.3545 35.2929 15.273 36.4701 17.407 36.9119C16.597 37.1387 15.7603 37.2518 14.9201 37.248C14.3278 37.2498 13.7367 37.1941 13.1549 37.0814C13.758 38.9873 14.9324 40.6537 16.5136 41.8472C18.0948 43.0406 20.0035 43.7014 21.9725 43.7369C18.6276 46.4079 14.4958 47.8565 10.2425 47.8495C9.49305 47.8527 8.74412 47.8087 8 47.7179C12.3169 50.5159 17.3302 52.0016 22.4498 52V52Z" fill="#ABB2BF"/>
</svg>
