<svg width="1920" height="1080" viewBox="0 0 1920 1080" fill="none" xmlns="http://www.w3.org/2000/svg">
<rect width="1920" height="1080" fill="#F5F5F5"/>
<g id="Paper_Plane_Vector 1">
<g id="Plane">
<path id="Vector" d="M1211.9 332.5L1782 165L1367.9 391.8L1211.9 332.5Z" fill="#82D6F4"/>
<path id="Vector_2" d="M1782 165L1367.9 391.8L1434.4 533.5L1782 165Z" fill="#29ABE2"/>
<path id="Vector_3" d="M1782 165L1451.9 421.5L1584.6 603.7L1782 165Z" fill="#82D6F4"/>
<path id="Vector_4" d="M1434.4 533.5L1451.9 421.5L1490.3 474.2L1434.4 533.5Z" fill="#0071BC"/>
</g>
<g id="Road">
<g id="Group">
<path id="Vector_5" d="M1390.5 557.4C1390.5 557.4 1388 559.9 1383.3 564.3" stroke="#00A99D" stroke-width="10" stroke-miterlimit="10"/>
<path id="Vector_6" d="M1368.3 577.8C1305.7 632.9 1120.9 777.5 951.9 733.9C744.4 680.5 785.6 458.7 908.1 459.1C1030.6 459.5 1105.5 673 1039.5 814C973.5 955 769.5 1057 487.4 985C258.1 926.5 68.4 685.3 20.6 620.1" stroke="#00A99D" stroke-width="10" stroke-miterlimit="10" stroke-dasharray="20.13 20.13"/>
<path id="Vector_7" d="M14.7 611.9C10.9 606.6 9 603.7 9 603.7" stroke="#00A99D" stroke-width="10" stroke-miterlimit="10"/>
</g>
</g>
</g>
</svg>
